# xmcd CD database file
#
# Track frame offsets:
#	150
#	15818
#	33568
#	51402
#	69239
#	85029
#	101710
#	119673
#	134395
#	149135
#	164730
#	178886
#	195067
#	214539
#	231550
#	247938
#	263668
#	275611
#	289828
#	305870
#
# Disc length: 4280 seconds
#
# Revision: 0
# Processed by: cddbd v1.5.2PL0 Copyright (c) Steve Scherf et al.
# Submitted via: CDex 1.51
#
DISCID=3010b614
DTITLE=Various Artist - Fama - A Bailar 4 - CD3 Lirico y Jass Fusión
DYEAR=2009
DGENRE=Jazz
TTITLE0=Nelly Furtado - Manos Al Aire
TTITLE1=David Bisbal - Esclavo De Sus Besos
TTITLE2=Manuel Carrasco - Que Nadie (Dúo con Malú)
TTITLE3=Luis Fonsi - Llueve Por Dentro
TTITLE4=Keri Hilson - Energy
TTITLE5=Antonio Orozco - Que Me Queda
TTITLE6=Pitbull - Hotel Room Service
TTITLE7=Pixie Lott - Mama Do (uh oh, uh oh)
TTITLE8=Tokio Hotel - Automatic
TTITLE9=Backstreet Boys - Straight Through My Heart
TTITLE10=Shakira - She Wolf
TTITLE11=Paulina Rubio - Ni Rosas, Ni Juguetes (Mr 305 Remix) (Dúo con Pitbull)
TTITLE12=Natalie Imbruglia - Want
TTITLE13=Agua - Back To The 80's
TTITLE14=Juan Magan - Mariah
TTITLE15=Pedo Cazanova invites Andrea - Selfish Love
TTITLE16=Redroche feat. Laura Kidd - Give U More
TTITLE17=Jackie Sagana - Full Of Grown
TTITLE18=Eso Es - Ayo
TTITLE19=Zee Code - Everybody's Dancing (Tanzamano Remix Edit)
EXTD=YEAR: 2009
EXTT0=
EXTT1=
EXTT2=
EXTT3=
EXTT4=
EXTT5=
EXTT6=
EXTT7=
EXTT8=
EXTT9=
EXTT10=
EXTT11=
EXTT12=
EXTT13=
EXTT14=
EXTT15=
EXTT16=
EXTT17=
EXTT18=
EXTT19=
PLAYORDER=
